# xmcd CD database file
#
# Track frame offsets:
#	150
#	18284
#	35899
#	48907
#	69979
#	85562
#	100328
#	120631
#	138332
#	154822
#	176612
#	190678
#	207176
#	224796
#	242352
#	255723
#
# Disc length: 3637 seconds
#
# Revision: 5
# Processed by: cddbd v1.5.2PL0 Copyright (c) Steve Scherf et al.
# Submitted via: CDex 1.50Beta7
#
DISCID=da0e3310
DTITLE=Gunter Gabriel - Die groﬂen Hits
DYEAR=1988
DGENRE=Country
TTITLE0=Intercity Linie Nummer 4
TTITLE1=Komm` unter meine Decke
TTITLE2=Hey Boﬂ, Ich brauch mehr Geld
TTITLE3=Er ist ein Kerl (der 30-Tonner Diesel)
TTITLE4=Ich werd gesucht in Bremerhaven
TTITLE5=Deutschland ist....
TTITLE6=M‰dchen ab 30
TTITLE7=Rheinhausen, du darfst nicht untergeh`n
TTITLE8=Ich bin CB-Funker
TTITLE9=Franky`s Curry Station
TTITLE10=Ohne Moos nichts los
TTITLE11=Willy Klein, der Fernsehmann
TTITLE12=Mit dem Hammer in der Hand
TTITLE13=Ich schlaf nicht gern allein
TTITLE14=Papa trinkt Bier
TTITLE15=Hey Lisa (Hey Yvonne)
EXTD=YEAR: 1988
EXTT0=
EXTT1=
EXTT2=
EXTT3=
EXTT4=
EXTT5=
EXTT6=
EXTT7=
EXTT8=
EXTT9=
EXTT10=
EXTT11=
EXTT12=
EXTT13=
EXTT14=
EXTT15=
PLAYORDER=
